<svg width="114" height="24" xmlns="http://www.w3.org/2000/svg">
  <g fill-rule="evenodd">
    <path d="M7.35 15.897c3.586 0 4.987-2.184 4.987-5.933 0-3.743-1.638-6.352-4.882-6.352H3.827v12.285zM0 .341h7.933c5.04 0 8.28 4.064 8.28 9.623 0 3.061-1.03 5.75-3.01 7.413-1.396 1.155-3.212 1.817-5.585 1.817H0V.346zm27.274 12.101c0-2.635-1.239-4.426-3.423-4.426-2.216 0-3.428 1.79-3.428 4.426 0 2.64 1.207 4.41 3.428 4.41 2.184 0 3.423-1.77 3.423-4.41m-10.49 0c0-4.032 2.872-7.14 7.066-7.14 4.19 0 7.062 3.108 7.062 7.14 0 4.037-2.872 7.145-7.062 7.145-4.194 0-7.066-3.108-7.066-7.14m14.868-.005c0-4.032 2.635-7.14 6.752-7.14 3.501 0 5.67 2.026 6.142 4.956h-3.507a2.478 2.478 0 00-2.478-2.084c-2.163 0-3.27 1.659-3.27 4.268 0 2.562 1.028 4.274 3.218 4.274 1.448 0 2.477-.767 2.714-2.295h3.454c-.236 2.877-2.478 5.166-6.09 5.166-4.273 0-6.935-3.108-6.935-7.14m22.507 6.747v-1.58h-.084c-.924 1.238-1.98 1.947-3.88 1.947-3.003 0-4.693-1.921-4.693-4.877V5.67h3.56v8.41c0 1.58.713 2.452 2.241 2.452 1.69 0 2.72-1.265 2.72-3.061V5.67h3.585v13.524h-3.454zm20.916 0h3.591V5.67h-3.591zm0-15.42h3.591V.43h-3.591v3.35zm14.543 8.065c0-1.98-1.05-3.665-3.213-3.665-1.822 0-3.034 1.423-3.034 3.69 0 2.295 1.212 3.64 3.06 3.64 2.268 0 3.187-1.66 3.187-3.665m-9.466 7.744h3.56c.294.845 1.055 1.506 2.72 1.506 2.026 0 3.002-.976 3.002-2.824V16.8h-.078a4.373 4.373 0 01-3.534 1.575c-3.003 0-5.959-2.373-5.959-6.457 0-4.032 2.426-6.615 5.854-6.615 1.686 0 2.93.656 3.744 1.785h.052V5.67h3.455v12.495c0 1.9-.604 3.192-1.607 4.116-1.134 1.05-2.877 1.528-4.882 1.528-3.686 0-5.954-1.58-6.327-4.221M98.013 7.513h.079c.919-1.45 2.163-2.216 4.006-2.216 2.793 0 4.667 2.11 4.667 5.067v8.83h-3.586V10.89c0-1.45-.84-2.478-2.347-2.478-1.58 0-2.74 1.265-2.74 3.113v7.67h-3.591V5.67h3.507v1.843zm-31.1.32c-2.799-.609-4.117-1.055-4.117-2.588 0-1.344 1.344-2.21 3.402-2.21 1.875 0 3.308.876 3.607 2.635h3.675C73.107 2.005 70.388 0 66.225 0 62.03 0 59 1.927 59 5.644c0 3.927 3.081 4.825 6.457 5.586 2.877.661 4.673 1.029 4.673 2.877 0 1.738-1.717 2.425-3.67 2.425-2.688 0-3.98-.892-4.242-3.166H58.47c.137 3.985 3.035 6.248 8.148 6.248 4.248 0 7.33-2.132 7.33-5.959 0-4.058-3.161-4.982-7.036-5.827m41.278-2.314a1.207 1.207 0 10.005 2.409 1.207 1.207 0 000-2.414m0 2.634a1.428 1.428 0 110-2.855 1.428 1.428 0 010 2.855"/>
    <path d="M107.97 6.223v.45h.278c.058-.004.252-.015.252-.23a.21.21 0 00-.115-.194c-.053-.026-.126-.032-.289-.032h-.126zm-.268-.242h.462c.194 0 .326 0 .452.105a.448.448 0 01.162.362.398.398 0 01-.288.399l.325.593h-.315l-.283-.54h-.247v.54h-.268z"/>
  </g>
</svg>
